<?xml version="1.0" encoding="UTF-8" standalone="no"?>
<!-- Created with Inkscape (http://www.inkscape.org/) -->

<svg
   xmlns:dc="http://purl.org/dc/elements/1.1/"
   xmlns:cc="http://creativecommons.org/ns#"
   xmlns:rdf="http://www.w3.org/1999/02/22-rdf-syntax-ns#"
   xmlns:svg="http://www.w3.org/2000/svg"
   xmlns="http://www.w3.org/2000/svg"
   xmlns:xlink="http://www.w3.org/1999/xlink"
   xmlns:sodipodi="http://sodipodi.sourceforge.net/DTD/sodipodi-0.dtd"
   xmlns:inkscape="http://www.inkscape.org/namespaces/inkscape"
   width="64px"
   height="64px"
   id="svg2816"
   version="1.1"
   inkscape:version="0.91 r13725"
   sodipodi:docname="cfd-solver-control.svg">
  <defs
     id="defs2818">
    <linearGradient
       inkscape:collect="always"
       id="linearGradient4466">
      <stop
         style="stop-color:#555753;stop-opacity:0"
         offset="0"
         id="stop4468" />
      <stop
         style="stop-color:#555753;stop-opacity:1"
         offset="1"
         id="stop4470" />
    </linearGradient>
    <linearGradient
       id="linearGradient3075">
      <stop
         style="stop-color:#c4a000;stop-opacity:1"
         offset="0"
         id="stop3077" />
      <stop
         id="stop3079"
         offset="1"
         style="stop-color:#fce94f;stop-opacity:1" />
    </linearGradient>
    <linearGradient
       id="linearGradient3681">
      <stop
         id="stop3697"
         offset="0"
         style="stop-color:#fff110;stop-opacity:1;" />
      <stop
         style="stop-color:#cf7008;stop-opacity:1;"
         offset="1"
         id="stop3685" />
    </linearGradient>
    <inkscape:perspective
       sodipodi:type="inkscape:persp3d"
       inkscape:vp_x="0 : 32 : 1"
       inkscape:vp_y="0 : 1000 : 0"
       inkscape:vp_z="64 : 32 : 1"
       inkscape:persp3d-origin="32 : 21.333333 : 1"
       id="perspective2824" />
    <inkscape:perspective
       id="perspective3622"
       inkscape:persp3d-origin="0.5 : 0.33333333 : 1"
       inkscape:vp_z="1 : 0.5 : 1"
       inkscape:vp_y="0 : 1000 : 0"
       inkscape:vp_x="0 : 0.5 : 1"
       sodipodi:type="inkscape:persp3d" />
    <inkscape:perspective
       id="perspective3622-9"
       inkscape:persp3d-origin="0.5 : 0.33333333 : 1"
       inkscape:vp_z="1 : 0.5 : 1"
       inkscape:vp_y="0 : 1000 : 0"
       inkscape:vp_x="0 : 0.5 : 1"
       sodipodi:type="inkscape:persp3d" />
    <inkscape:perspective
       id="perspective3653"
       inkscape:persp3d-origin="0.5 : 0.33333333 : 1"
       inkscape:vp_z="1 : 0.5 : 1"
       inkscape:vp_y="0 : 1000 : 0"
       inkscape:vp_x="0 : 0.5 : 1"
       sodipodi:type="inkscape:persp3d" />
    <inkscape:perspective
       id="perspective3675"
       inkscape:persp3d-origin="0.5 : 0.33333333 : 1"
       inkscape:vp_z="1 : 0.5 : 1"
       inkscape:vp_y="0 : 1000 : 0"
       inkscape:vp_x="0 : 0.5 : 1"
       sodipodi:type="inkscape:persp3d" />
    <inkscape:perspective
       id="perspective3697"
       inkscape:persp3d-origin="0.5 : 0.33333333 : 1"
       inkscape:vp_z="1 : 0.5 : 1"
       inkscape:vp_y="0 : 1000 : 0"
       inkscape:vp_x="0 : 0.5 : 1"
       sodipodi:type="inkscape:persp3d" />
    <inkscape:perspective
       id="perspective3720"
       inkscape:persp3d-origin="0.5 : 0.33333333 : 1"
       inkscape:vp_z="1 : 0.5 : 1"
       inkscape:vp_y="0 : 1000 : 0"
       inkscape:vp_x="0 : 0.5 : 1"
       sodipodi:type="inkscape:persp3d" />
    <inkscape:perspective
       id="perspective3742"
       inkscape:persp3d-origin="0.5 : 0.33333333 : 1"
       inkscape:vp_z="1 : 0.5 : 1"
       inkscape:vp_y="0 : 1000 : 0"
       inkscape:vp_x="0 : 0.5 : 1"
       sodipodi:type="inkscape:persp3d" />
    <inkscape:perspective
       id="perspective3764"
       inkscape:persp3d-origin="0.5 : 0.33333333 : 1"
       inkscape:vp_z="1 : 0.5 : 1"
       inkscape:vp_y="0 : 1000 : 0"
       inkscape:vp_x="0 : 0.5 : 1"
       sodipodi:type="inkscape:persp3d" />
    <inkscape:perspective
       id="perspective3785"
       inkscape:persp3d-origin="0.5 : 0.33333333 : 1"
       inkscape:vp_z="1 : 0.5 : 1"
       inkscape:vp_y="0 : 1000 : 0"
       inkscape:vp_x="0 : 0.5 : 1"
       sodipodi:type="inkscape:persp3d" />
    <inkscape:perspective
       id="perspective3806"
       inkscape:persp3d-origin="0.5 : 0.33333333 : 1"
       inkscape:vp_z="1 : 0.5 : 1"
       inkscape:vp_y="0 : 1000 : 0"
       inkscape:vp_x="0 : 0.5 : 1"
       sodipodi:type="inkscape:persp3d" />
    <inkscape:perspective
       id="perspective3806-3"
       inkscape:persp3d-origin="0.5 : 0.33333333 : 1"
       inkscape:vp_z="1 : 0.5 : 1"
       inkscape:vp_y="0 : 1000 : 0"
       inkscape:vp_x="0 : 0.5 : 1"
       sodipodi:type="inkscape:persp3d" />
    <inkscape:perspective
       id="perspective3835"
       inkscape:persp3d-origin="0.5 : 0.33333333 : 1"
       inkscape:vp_z="1 : 0.5 : 1"
       inkscape:vp_y="0 : 1000 : 0"
       inkscape:vp_x="0 : 0.5 : 1"
       sodipodi:type="inkscape:persp3d" />
    <inkscape:perspective
       id="perspective3614"
       inkscape:persp3d-origin="0.5 : 0.33333333 : 1"
       inkscape:vp_z="1 : 0.5 : 1"
       inkscape:vp_y="0 : 1000 : 0"
       inkscape:vp_x="0 : 0.5 : 1"
       sodipodi:type="inkscape:persp3d" />
    <inkscape:perspective
       id="perspective3614-8"
       inkscape:persp3d-origin="0.5 : 0.33333333 : 1"
       inkscape:vp_z="1 : 0.5 : 1"
       inkscape:vp_y="0 : 1000 : 0"
       inkscape:vp_x="0 : 0.5 : 1"
       sodipodi:type="inkscape:persp3d" />
    <inkscape:perspective
       id="perspective3643"
       inkscape:persp3d-origin="0.5 : 0.33333333 : 1"
       inkscape:vp_z="1 : 0.5 : 1"
       inkscape:vp_y="0 : 1000 : 0"
       inkscape:vp_x="0 : 0.5 : 1"
       sodipodi:type="inkscape:persp3d" />
    <inkscape:perspective
       id="perspective3643-3"
       inkscape:persp3d-origin="0.5 : 0.33333333 : 1"
       inkscape:vp_z="1 : 0.5 : 1"
       inkscape:vp_y="0 : 1000 : 0"
       inkscape:vp_x="0 : 0.5 : 1"
       sodipodi:type="inkscape:persp3d" />
    <inkscape:perspective
       id="perspective3672"
       inkscape:persp3d-origin="0.5 : 0.33333333 : 1"
       inkscape:vp_z="1 : 0.5 : 1"
       inkscape:vp_y="0 : 1000 : 0"
       inkscape:vp_x="0 : 0.5 : 1"
       sodipodi:type="inkscape:persp3d" />
    <inkscape:perspective
       id="perspective3672-5"
       inkscape:persp3d-origin="0.5 : 0.33333333 : 1"
       inkscape:vp_z="1 : 0.5 : 1"
       inkscape:vp_y="0 : 1000 : 0"
       inkscape:vp_x="0 : 0.5 : 1"
       sodipodi:type="inkscape:persp3d" />
    <inkscape:perspective
       id="perspective3701"
       inkscape:persp3d-origin="0.5 : 0.33333333 : 1"
       inkscape:vp_z="1 : 0.5 : 1"
       inkscape:vp_y="0 : 1000 : 0"
       inkscape:vp_x="0 : 0.5 : 1"
       sodipodi:type="inkscape:persp3d" />
    <inkscape:perspective
       id="perspective3701-8"
       inkscape:persp3d-origin="0.5 : 0.33333333 : 1"
       inkscape:vp_z="1 : 0.5 : 1"
       inkscape:vp_y="0 : 1000 : 0"
       inkscape:vp_x="0 : 0.5 : 1"
       sodipodi:type="inkscape:persp3d" />
    <inkscape:perspective
       id="perspective3746"
       inkscape:persp3d-origin="0.5 : 0.33333333 : 1"
       inkscape:vp_z="1 : 0.5 : 1"
       inkscape:vp_y="0 : 1000 : 0"
       inkscape:vp_x="0 : 0.5 : 1"
       sodipodi:type="inkscape:persp3d" />
    <pattern
       patternTransform="matrix(0.67643728,-0.81829155,2.4578314,1.8844554,-26.450606,18.294947)"
       id="pattern5231"
       xlink:href="#Strips1_1-4"
       inkscape:collect="always" />
    <inkscape:perspective
       id="perspective5224"
       inkscape:persp3d-origin="0.5 : 0.33333333 : 1"
       inkscape:vp_z="1 : 0.5 : 1"
       inkscape:vp_y="0 : 1000 : 0"
       inkscape:vp_x="0 : 0.5 : 1"
       sodipodi:type="inkscape:persp3d" />
    <pattern
       inkscape:stockid="Stripes 1:1"
       id="Strips1_1-4"
       patternTransform="matrix(0.66772843,-1.0037085,2.4261878,2.3114548,3.4760987,3.534923)"
       height="1"
       width="2"
       patternUnits="userSpaceOnUse"
       inkscape:collect="always">
      <rect
         id="rect4483-4"
         height="2"
         width="1"
         y="-0.5"
         x="0"
         style="fill:black;stroke:none" />
    </pattern>
    <inkscape:perspective
       id="perspective5224-9"
       inkscape:persp3d-origin="0.5 : 0.33333333 : 1"
       inkscape:vp_z="1 : 0.5 : 1"
       inkscape:vp_y="0 : 1000 : 0"
       inkscape:vp_x="0 : 0.5 : 1"
       sodipodi:type="inkscape:persp3d" />
    <pattern
       patternTransform="matrix(0.66772843,-1.0037085,2.4261878,2.3114548,39.618381,8.9692804)"
       id="pattern5231-4"
       xlink:href="#Strips1_1-6"
       inkscape:collect="always" />
    <inkscape:perspective
       id="perspective5224-3"
       inkscape:persp3d-origin="0.5 : 0.33333333 : 1"
       inkscape:vp_z="1 : 0.5 : 1"
       inkscape:vp_y="0 : 1000 : 0"
       inkscape:vp_x="0 : 0.5 : 1"
       sodipodi:type="inkscape:persp3d" />
    <pattern
       inkscape:stockid="Stripes 1:1"
       id="Strips1_1-6"
       patternTransform="matrix(0.66772843,-1.0037085,2.4261878,2.3114548,3.4760987,3.534923)"
       height="1"
       width="2"
       patternUnits="userSpaceOnUse"
       inkscape:collect="always">
      <rect
         id="rect4483-0"
         height="2"
         width="1"
         y="-0.5"
         x="0"
         style="fill:black;stroke:none" />
    </pattern>
    <pattern
       patternTransform="matrix(0.66513382,-1.0631299,2.4167603,2.4482973,-49.762569,2.9546807)"
       id="pattern5296"
       xlink:href="#pattern5231-3"
       inkscape:collect="always" />
    <inkscape:perspective
       id="perspective5288"
       inkscape:persp3d-origin="0.5 : 0.33333333 : 1"
       inkscape:vp_z="1 : 0.5 : 1"
       inkscape:vp_y="0 : 1000 : 0"
       inkscape:vp_x="0 : 0.5 : 1"
       sodipodi:type="inkscape:persp3d" />
    <pattern
       patternTransform="matrix(0.66772843,-1.0037085,2.4261878,2.3114548,-26.336284,10.887197)"
       id="pattern5231-3"
       xlink:href="#Strips1_1-4-3"
       inkscape:collect="always" />
    <pattern
       inkscape:stockid="Stripes 1:1"
       id="Strips1_1-4-3"
       patternTransform="matrix(0.66772843,-1.0037085,2.4261878,2.3114548,3.4760987,3.534923)"
       height="1"
       width="2"
       patternUnits="userSpaceOnUse"
       inkscape:collect="always">
      <rect
         id="rect4483-4-6"
         height="2"
         width="1"
         y="-0.5"
         x="0"
         style="fill:black;stroke:none" />
    </pattern>
    <pattern
       patternTransform="matrix(0.42844886,-0.62155849,1.5567667,1.431396,27.948414,13.306456)"
       id="pattern5330"
       xlink:href="#Strips1_1-9"
       inkscape:collect="always" />
    <inkscape:perspective
       id="perspective5323"
       inkscape:persp3d-origin="0.5 : 0.33333333 : 1"
       inkscape:vp_z="1 : 0.5 : 1"
       inkscape:vp_y="0 : 1000 : 0"
       inkscape:vp_x="0 : 0.5 : 1"
       sodipodi:type="inkscape:persp3d" />
    <pattern
       inkscape:stockid="Stripes 1:1"
       id="Strips1_1-9"
       patternTransform="matrix(0.66772843,-1.0037085,2.4261878,2.3114548,3.4760987,3.534923)"
       height="1"
       width="2"
       patternUnits="userSpaceOnUse"
       inkscape:collect="always">
      <rect
         id="rect4483-3"
         height="2"
         width="1"
         y="-0.5"
         x="0"
         style="fill:black;stroke:none" />
    </pattern>
    <inkscape:perspective
       id="perspective5361"
       inkscape:persp3d-origin="0.5 : 0.33333333 : 1"
       inkscape:vp_z="1 : 0.5 : 1"
       inkscape:vp_y="0 : 1000 : 0"
       inkscape:vp_x="0 : 0.5 : 1"
       sodipodi:type="inkscape:persp3d" />
    <inkscape:perspective
       id="perspective5383"
       inkscape:persp3d-origin="0.5 : 0.33333333 : 1"
       inkscape:vp_z="1 : 0.5 : 1"
       inkscape:vp_y="0 : 1000 : 0"
       inkscape:vp_x="0 : 0.5 : 1"
       sodipodi:type="inkscape:persp3d" />
    <inkscape:perspective
       id="perspective5411"
       inkscape:persp3d-origin="0.5 : 0.33333333 : 1"
       inkscape:vp_z="1 : 0.5 : 1"
       inkscape:vp_y="0 : 1000 : 0"
       inkscape:vp_x="0 : 0.5 : 1"
       sodipodi:type="inkscape:persp3d" />
    <linearGradient
       inkscape:collect="always"
       xlink:href="#linearGradient3681"
       id="linearGradient3687"
       x1="37.89756"
       y1="41.087898"
       x2="4.0605712"
       y2="40.168594"
       gradientUnits="userSpaceOnUse" />
    <radialGradient
       inkscape:collect="always"
       xlink:href="#linearGradient12512"
       id="radialGradient278"
       gradientUnits="userSpaceOnUse"
       cx="55"
       cy="125"
       fx="55"
       fy="125"
       r="14.375" />
    <linearGradient
       id="linearGradient12512">
      <stop
         style="stop-color:#ffffff;stop-opacity:1.0000000;"
         offset="0.0000000"
         id="stop12513" />
      <stop
         style="stop-color:#fff520;stop-opacity:0.89108908;"
         offset="0.50000000"
         id="stop12517" />
      <stop
         style="stop-color:#fff300;stop-opacity:0.0000000;"
         offset="1.0000000"
         id="stop12514" />
    </linearGradient>
    <linearGradient
       inkscape:collect="always"
       xlink:href="#linearGradient3681-6"
       id="linearGradient3695-3"
       x1="31.777767"
       y1="40.24213"
       x2="68.442062"
       y2="54.041203"
       gradientUnits="userSpaceOnUse"
       gradientTransform="matrix(0.35076121,-0.80989332,0.9637072,0.29477747,-15.928037,46.874167)" />
    <linearGradient
       id="linearGradient3681-6">
      <stop
         id="stop3697-7"
         offset="0"
         style="stop-color:#fff110;stop-opacity:1;" />
      <stop
         style="stop-color:#cf7008;stop-opacity:1;"
         offset="1"
         id="stop3685-5" />
    </linearGradient>
    <radialGradient
       inkscape:collect="always"
       xlink:href="#linearGradient4466"
       id="radialGradient4472"
       cx="32"
       cy="32.000038"
       fx="32"
       fy="32.000038"
       r="30"
       gradientTransform="matrix(0.73333333,-1.7021032e-6,2.1663171e-6,0.93333504,8.533264,2.1333488)"
       gradientUnits="userSpaceOnUse" />
  </defs>
  <sodipodi:namedview
     id="base"
     pagecolor="#ffffff"
     bordercolor="#666666"
     borderopacity="1.0"
     inkscape:pageopacity="0.0"
     inkscape:pageshadow="2"
     inkscape:zoom="6.7506601"
     inkscape:cx="-11.577595"
     inkscape:cy="51.180624"
     inkscape:current-layer="layer1"
     showgrid="true"
     inkscape:document-units="px"
     inkscape:grid-bbox="true"
     inkscape:snap-bbox="true"
     inkscape:bbox-paths="false"
     inkscape:bbox-nodes="false"
     inkscape:snap-bbox-edge-midpoints="false"
     inkscape:snap-bbox-midpoints="false"
     inkscape:object-paths="true"
     inkscape:object-nodes="true"
     inkscape:window-width="1751"
     inkscape:window-height="950"
     inkscape:window-x="65"
     inkscape:window-y="24"
     inkscape:window-maximized="1"
     inkscape:snap-nodes="false">
    <inkscape:grid
       type="xygrid"
       id="grid3039"
       empspacing="2"
       visible="true"
       enabled="true"
       snapvisiblegridlinesonly="true" />
  </sodipodi:namedview>
  <metadata
     id="metadata2821">
    <rdf:RDF>
      <cc:Work
         rdf:about="">
        <dc:format>image/svg+xml</dc:format>
        <dc:type
           rdf:resource="http://purl.org/dc/dcmitype/StillImage" />
        <dc:title />
        <dc:creator>
          <cc:Agent>
            <dc:title>[Bernd Hahnebach]</dc:title>
          </cc:Agent>
        </dc:creator>
        <dc:title>fem-control-solver</dc:title>
        <dc:date>2016-05-14</dc:date>
        <dc:relation>http://www.freecadweb.org/wiki/index.php?title=Artwork</dc:relation>
        <dc:publisher>
          <cc:Agent>
            <dc:title>FreeCAD</dc:title>
          </cc:Agent>
        </dc:publisher>
        <dc:identifier>FreeCAD/src/Mod/</dc:identifier>
        <dc:rights>
          <cc:Agent>
            <dc:title>FreeCAD LGPL2+</dc:title>
          </cc:Agent>
        </dc:rights>
        <cc:license>https://www.gnu.org/copyleft/lesser.html</cc:license>
        <dc:contributor>
          <cc:Agent>
            <dc:title>[agryson] Alexander Gryson</dc:title>
          </cc:Agent>
        </dc:contributor>
      </cc:Work>
    </rdf:RDF>
  </metadata>
  <g
     id="layer1"
     inkscape:label="Layer 1"
     inkscape:groupmode="layer">
    <path
       style="fill:none;fill-rule:evenodd;stroke:#000000;stroke-width:0.69941413px;stroke-linecap:butt;stroke-linejoin:miter;stroke-opacity:1"
       d="m 35.565013,30.467826 0,32.66623 24.230822,-16.890831 z"
       id="path4204"
       inkscape:connector-curvature="0"
       sodipodi:nodetypes="cccc" />
    <path
       style="fill:#0bb800;fill-opacity:0.63978493"
       d="m 35.820845,46.782344 c 0,-9.17184 0.02144,-16.676072 0.04765,-16.676072 0.09627,0 23.38988,16.00566 23.413936,16.088342 0.02117,0.07274 -23.299411,17.263803 -23.419251,17.263803 -0.02329,0 -0.04233,-7.504233 -0.04233,-16.676073 z"
       id="path4248"
       inkscape:connector-curvature="0" />
    <g
       transform="matrix(0.03721816,0,0,0.03764016,0.91086257,1.0330929)"
       id="g6">
      <g
         transform="matrix(0.1,0,0,-0.1,0,511)"
         id="g8">
        <path
           inkscape:connector-curvature="0"
           d="m 4425.9,4996.4 c -283.1,-72.1 -456.6,-285.7 -483.3,-595.5 -32,-357.8 -64.1,-397.9 -480.7,-568.8 -395.2,-160.2 -507.4,-160.2 -688.9,8 -64.1,58.8 -165.6,133.5 -227,162.9 -138.9,72.1 -376.5,74.8 -523.4,5.4 -141.5,-66.8 -878.5,-811.8 -934.6,-942.6 -58.8,-141.5 -50.7,-373.8 13.3,-502 29.4,-58.8 106.8,-165.6 173.6,-240.3 165.6,-184.2 162.9,-288.4 -2.7,-683.6 C 1101.3,1231.3 1058.6,1194 735.5,1167.3 449.8,1143.3 273.5,1033.8 150.7,801.5 105.3,718.6 100,641.1 100,107.1 c 0,-534 5.3,-611.5 50.7,-694.3 122.9,-232.3 299.1,-341.8 584.8,-365.8 323.1,-26.7 368.5,-64.1 536.7,-475.3 165.6,-397.9 165.6,-496.7 2.7,-680.9 -66.8,-74.8 -144.2,-181.6 -173.6,-240.3 -64.1,-128.2 -72.1,-360.5 -13.3,-502 56.1,-130.9 793.1,-875.9 934.6,-942.6 138.9,-64.1 365.8,-64.1 512.7,0 61.4,29.4 168.2,104.1 235,165.6 104.1,96.1 141.5,114.8 261.7,122.8 120.2,10.7 181.6,-5.3 432.6,-112.2 411.2,-173.6 451.3,-219 472.6,-534.1 18.7,-283 133.5,-467.3 368.5,-590.1 82.8,-45.4 160.2,-50.8 694.3,-50.8 534.1,0 611.5,5.4 694.3,50.8 232.3,122.8 341.8,299.1 365.8,584.8 26.7,323.1 64.1,365.8 475.3,539.4 251,106.8 312.4,122.9 432.6,112.2 120.2,-8 157.5,-26.7 261.7,-122.8 162.9,-149.6 312.4,-216.3 494,-216.3 229.6,0 323.1,64.1 753,496.7 421.9,427.2 475.3,510 475.3,737 0,176.2 -64.1,320.4 -224.3,499.4 -168.2,189.6 -168.2,291 -2.7,686.3 170.9,405.9 216.3,445.9 539.4,472.6 285.7,24 462,133.5 584.8,365.8 45.4,82.8 50.7,160.2 50.7,694.3 0,563.4 -2.7,606.2 -58.8,707.6 -120.2,224.3 -304.4,336.5 -582.1,355.1 -315.1,21.4 -360.5,61.4 -531.4,470 -168.2,397.9 -168.2,496.7 0,686.3 69.4,77.4 146.9,189.6 173.6,248.3 61.4,133.5 64.1,357.8 10.7,491.3 -56.1,130.8 -793.1,875.9 -934.6,942.6 -146.9,69.4 -384.5,66.8 -523.4,-5.4 -61.4,-29.4 -162.9,-104.2 -227,-162.9 -101.5,-93.5 -141.6,-112.1 -259,-120.2 -120.2,-10.7 -181.6,5.3 -432.6,112.2 -411.2,173.6 -448.6,216.3 -475.3,539.4 -24,285.7 -133.5,462 -365.8,584.8 -80.1,45.4 -162.9,50.7 -640.9,56.1 -301.6,2.6 -582,-5.4 -627.4,-16.1 z m 1156.2,-451.3 c 37.4,-37.4 53.4,-106.8 66.8,-256.3 10.7,-146.9 34.7,-251 85.5,-352.5 109.5,-224.3 248.3,-325.8 672.9,-494 317.7,-125.5 392.5,-144.2 542.1,-141.5 216.3,2.7 389.9,74.8 563.4,237.6 208.3,194.9 256.4,173.6 713,-288.4 387.2,-397.9 397.9,-424.6 205.6,-630.2 -168.2,-178.9 -237.7,-347.1 -237.7,-576.8 -2.7,-165.6 13.3,-224.3 130.8,-507.4 72.1,-176.2 157.6,-363.2 189.6,-416.6 133.5,-216.3 363.2,-341.8 670.3,-363.2 309.7,-24 301.7,-8 301.7,-648.9 0,-643.5 8,-624.8 -304.4,-648.9 -435.3,-32.1 -619.5,-194.9 -843.8,-742.3 -128.2,-317.8 -144.2,-379.2 -144.2,-544.8 0,-229.6 69.4,-397.9 237.7,-576.8 192.3,-205.6 181.6,-232.3 -205.6,-630.2 -456.6,-462 -504.7,-483.3 -713,-288.4 -181.6,170.9 -347.1,237.7 -576.8,237.7 -165.6,0 -229.6,-16 -544.8,-144.2 -547.4,-224.3 -710.3,-408.6 -742.3,-843.8 -24,-312.4 -5.3,-304.4 -648.9,-304.4 -640.9,0 -624.8,-8 -648.9,301.7 -21.4,307.1 -146.9,536.7 -363.2,670.3 -53.4,32.1 -240.3,117.5 -416.6,189.6 -280.4,114.8 -344.5,133.5 -507.4,133.5 -229.6,-2.7 -395.2,-69.4 -576.8,-240.3 -208.3,-194.9 -256.4,-173.6 -710.3,288.4 -389.9,397.9 -397.9,419.2 -205.6,638.2 168.2,186.9 232.3,339.1 235,555.4 2.7,149.6 -16,224.3 -141.5,542.1 -168.2,424.6 -269.7,563.4 -494,672.9 -101.5,50.8 -205.6,74.8 -352.5,85.5 -312.4,24 -304.4,5.3 -304.4,648.9 0,499.4 2.7,536.7 53.4,587.5 37.4,37.4 88.1,53.4 181.6,53.4 293.7,0 558.1,128.2 710.3,341.8 45.4,64.1 141.5,261.7 213.6,440.6 117.5,283.1 133.5,349.8 133.5,512.7 0,229.7 -69.4,395.2 -237.7,576.8 -197.6,210.9 -189.6,232.3 248.3,670.2 437.9,437.9 459.3,445.9 670.2,248.3 181.6,-168.2 347.1,-237.6 576.8,-237.6 162.9,0 229.6,16 512.7,133.5 178.9,72.1 376.5,168.2 440.6,213.6 213.6,152.2 341.8,416.6 341.8,710.3 0,93.5 16,144.2 53.4,181.6 50.7,50.8 88.1,53.4 587.5,53.4 483.5,0.1 539.6,-5.3 582.3,-48 z"
           id="path10" />
        <path
           inkscape:connector-curvature="0"
           d="M 4700.9,2430.2 C 4156.2,2344.7 3769,2155.2 3387.1,1792 2909.1,1332.7 2668.8,769.3 2668.8,107 c 0,-931.9 531.4,-1751.7 1388.6,-2141.6 563.4,-256.3 1321.8,-256.3 1885.2,0 523.4,237.7 961.3,675.6 1196.3,1193.6 259,571.5 259,1324.5 2.7,1890.6 -301.7,664.9 -894.6,1161.6 -1586.2,1327.1 -261.7,64.2 -643.5,85.6 -854.5,53.5 z m 763.7,-453.9 c 867.8,-221.6 1458,-977.3 1458,-1869.2 0,-1070.8 -851.8,-1922.6 -1922.6,-1922.6 -1070.8,0 -1922.6,851.8 -1922.6,1922.6 0,886.5 587.5,1642.2 1447.3,1869.2 267,69.4 667.6,69.4 939.9,0 z"
           id="path12" />
        <path
           inkscape:connector-curvature="0"
           d="M 4765,1573.1 C 4238.9,1485 3777,1105.8 3608.8,625.1 3512.6,355.4 3491.3,93.7 3542,-160 c 146.9,-715.6 742.4,-1212.3 1458,-1212.3 403.2,0 755.7,146.9 1044.1,435.3 288.4,288.4 435.3,640.9 435.3,1044.1 0,707.6 -494,1308.4 -1193.6,1452.7 -221.7,45.3 -307.2,48 -520.8,13.3 z m 670.3,-483.4 c 211,-98.8 427.2,-309.7 534.1,-526 80.1,-162.9 85.4,-192.3 85.4,-456.6 0,-248.3 -8,-296.4 -72.1,-435.3 -101.5,-213.6 -312.4,-427.2 -526.1,-534.1 -162.9,-80.1 -192.2,-85.4 -456.6,-85.4 -248.3,0 -296.4,8 -435.3,72.1 -213.6,101.5 -427.2,312.4 -534.1,526.1 -80.1,162.9 -85.5,192.3 -85.5,456.6 0,248.3 8,299.1 72.1,432.6 125.5,269.7 392.5,507.4 670.2,598.2 187.1,61.3 560.9,37.3 747.9,-48.2 z"
           id="path14" />
      </g>
    </g>
  </g>
</svg>
